<svg width="387" height="455" viewBox="0 0 387 455" fill="none" xmlns="http://www.w3.org/2000/svg">
<path d="M194.614 1.19803L195.816 196.245L1.30779 197.444C1.22506 195.438 1.17752 193.432 1.16493 191.39L1.15712 190.123C1.15001 80.5038 81.5815 1.85942 191.518 1.1819C192.538 1.17562 193.558 1.16933 194.579 1.19824L194.614 1.19803Z" fill="#FF7768"/>
<path d="M384.484 195.083L195.112 196.25L193.91 1.20239C194.262 1.20022 194.614 1.19806 194.966 1.19589C302.416 2.46981 380.926 80.1347 384.407 188.324C384.491 190.577 384.505 192.83 384.484 195.048L384.484 195.083Z" fill="#54DDCD"/>
<path d="M384.484 195.083C384.46 202.616 384.013 209.976 383.108 217.233C368.273 339.018 238.535 420.396 205.365 449.818C203.16 451.767 200.493 452.805 197.75 452.927L197.292 452.93C197.081 452.931 196.905 452.932 196.694 452.899L195.112 196.25L384.484 195.083Z" fill="#723BA6"/>
<path d="M195.112 196.25L196.694 452.899C194.09 452.809 191.446 451.84 189.323 450.022C154.914 421.087 21.5148 347.985 3.23847 219.574C2.20897 212.364 1.56558 205.011 1.30786 197.444L195.112 196.25Z" fill="#FDBC46"/>
<path d="M195.762 301.606C253.913 301.247 300.763 253.787 300.405 195.601C300.046 137.414 252.615 90.5356 194.463 90.894C136.312 91.2523 89.4611 138.712 89.8197 196.899C90.1783 255.085 137.61 301.964 195.762 301.606Z" fill="#403068"/>
<path d="M195.587 273.234C238.078 272.972 272.312 238.293 272.05 195.776C271.788 153.259 237.129 119.004 194.638 119.266C152.146 119.528 117.912 154.207 118.174 196.724C118.436 239.241 153.095 273.496 195.587 273.234Z" fill="#FEFAF4"/>
<path d="M195.378 239.406C219.198 239.259 238.389 219.819 238.242 195.984C238.096 172.15 218.666 152.947 194.846 153.094C171.026 153.24 151.835 172.681 151.982 196.516C152.129 220.35 171.558 239.553 195.378 239.406Z" fill="#403068"/>
</svg>
