<?xml version="1.0" encoding="UTF-8"?>
<svg id="Camada_2" data-name="Camada 2" xmlns="http://www.w3.org/2000/svg" viewBox="0 0 108.96 128.34">
  <defs>
    <style>
      .cls-1 {
        fill: #403068;
      }

      .cls-2 {
        fill: #723ba6;
      }

      .cls-3 {
        fill: #ff7768;
      }

      .cls-4 {
        fill: #fefaf4;
      }

      .cls-5 {
        fill: #fdbc46;
      }

      .cls-6 {
        fill: #54ddcd;
      }
    </style>
  </defs>
  <g id="Camada_1-2" data-name="Camada 1">
    <g>
      <path class="cls-3" d="M55.32.01v55.41H.03c-.02-.57-.03-1.14-.03-1.72v-.36C.19,22.2,23.19,0,54.44,0c.29,0,.58,0,.87.01Z"/>
      <path class="cls-6" d="M108.95,55.42h-53.83V.01c.1,0,.2,0,.3,0,30.54.55,52.72,22.75,53.52,53.49.02.64.02,1.28.01,1.91Z"/>
      <path class="cls-2" d="M108.95,55.42c-.02,2.14-.16,4.23-.43,6.29-4.43,34.57-41.45,57.46-50.93,65.76-.63.55-1.39.84-2.17.87h-.13c-.06,0-.11,0-.17-.01V55.42h53.83Z"/>
      <path class="cls-5" d="M55.12,55.42v72.91c-.74-.03-1.49-.31-2.09-.83C43.3,119.22,5.51,98.22.54,61.71c-.28-2.05-.45-4.14-.51-6.29h55.09Z"/>
      <circle class="cls-1" cx="55.12" cy="55.42" r="29.93"/>
      <circle class="cls-4" cx="55.12" cy="55.42" r="21.87"/>
      <circle class="cls-1" cx="55.12" cy="55.42" r="12.26"/>
    </g>
  </g>
</svg>