<?xml version="1.0" encoding="UTF-8"?>
<svg id="Camada_2" data-name="Camada 2" xmlns="http://www.w3.org/2000/svg" xmlns:xlink="http://www.w3.org/1999/xlink" viewBox="0 0 114.53 142.5">
  <defs>
    <style>
      .cls-1 {
        fill: url(#Gradiente_sem_nome_9);
      }

      .cls-2 {
        fill: #fff;
      }

      .cls-3 {
        fill: url(#Gradiente_sem_nome_13);
      }

      .cls-4 {
        fill: #3a2761;
      }

      .cls-5 {
        fill: #422e67;
      }

      .cls-6 {
        fill: url(#Gradiente_sem_nome_4);
      }

      .cls-7 {
        fill: url(#Gradiente_sem_nome_18);
      }
    </style>
    <linearGradient id="Gradiente_sem_nome_4" data-name="Gradiente sem nome 4" x1=".15" y1="33.04" x2="56.15" y2="33.04" gradientUnits="userSpaceOnUse">
      <stop offset="0" stop-color="#ff7b68"/>
      <stop offset="1" stop-color="#ff7867"/>
    </linearGradient>
    <linearGradient id="Gradiente_sem_nome_13" data-name="Gradiente sem nome 13" x1="0" y1="104.17" x2="56.15" y2="104.17" gradientUnits="userSpaceOnUse">
      <stop offset="0" stop-color="#ff7b68"/>
      <stop offset="0" stop-color="#ffac43"/>
      <stop offset=".8" stop-color="#ffac43"/>
    </linearGradient>
    <linearGradient id="Gradiente_sem_nome_9" data-name="Gradiente sem nome 9" x1="56.15" y1="33.04" x2="114.15" y2="33.04" gradientUnits="userSpaceOnUse">
      <stop offset="0" stop-color="#ff7b68"/>
      <stop offset="0" stop-color="#52dcce"/>
    </linearGradient>
    <linearGradient id="Gradiente_sem_nome_18" data-name="Gradiente sem nome 18" x1="56.15" y1="104.29" x2="114.53" y2="104.29" gradientUnits="userSpaceOnUse">
      <stop offset="0" stop-color="#ff7b68"/>
      <stop offset="0" stop-color="#6f3ba3"/>
      <stop offset=".8" stop-color="#743ca4"/>
    </linearGradient>
  </defs>
  <g id="Camada_1-2" data-name="Camada 1">
    <g>
      <g>
        <path class="cls-6" d="M56.15,0v66.07H.15v-5.05C.34,15.13,32.52.2,56.15,0Z"/>
        <path class="cls-3" d="M56.15,66.07v76.06c-7.29,2.72-50.97-33.36-56.15-76.06h56.15Z"/>
        <path class="cls-1" d="M114.15,58.47v7.6h-58V0c23.63,0,58,9.19,58,58.47Z"/>
        <path class="cls-7" d="M114.53,66.07c0,31.81-49.11,81.17-58.38,76.06v-76.06h58.38Z"/>
      </g>
      <g>
        <circle class="cls-4" cx="57.15" cy="64.07" r="36"/>
        <ellipse class="cls-2" cx="56.65" cy="64.07" rx="24.5" ry="24"/>
        <circle class="cls-5" cx="57.15" cy="64.07" r="14"/>
      </g>
    </g>
  </g>
</svg>